<svg xmlns="http://www.w3.org/2000/svg" viewBox="41.3 12.6 1225.3 990.7"><g fill="#C28B65"><path d="M1093.8 210.4H965.9v270c0 136.2-110.8 247-247 247H527.1c26.8 60.6 87.3 103 157.9 103h203.5l221.9 172.8V829.7c87.6-8.4 156.2-82.2 156.2-172V383.3c0-95.5-77.4-172.9-172.8-172.9z"/><path d="M899.7 480.5v-287c0-99.8-80.9-180.8-180.8-180.8H222.1c-99.8 0-180.8 80.9-180.8 180.8v287c0 94 71.7 171.1 163.3 179.9V842l232.2-180.8h282.1c99.8 0 180.8-80.9 180.8-180.7zm-662.5-276h461.6V277H237.2v-72.5zm0 204.9v-72.5h325v72.5h-325z"/></g></svg>