<svg xmlns="http://www.w3.org/2000/svg" viewBox="-1289 218.3 731.2 616"><path fill="#61A8DE" d="M0 0h1000v1000H0z"/><path fill="#FFF" d="M787.4 220.7L118.7 481.3c-21.7 8.4-20.3 39.5 1.9 46.1l169.9 50.2L354 778.8c6.6 21 33.3 27.4 48.7 11.6l87.9-89.7L663 827.2c21.1 15.5 51.1 4 56.5-21.6l114.2-545.8c5.5-26.7-20.8-49-46.3-39.1zm-83.8 121.2L393 616.6c-3.1 2.7-5.1 6.5-5.5 10.6l-12 106.3c-.4 3.5-5.2 3.9-6.3.6L320 575.6c-2.3-7.3.7-15.1 7.1-19.1L693.9 329c8.5-5.3 17.1 6.3 9.7 12.9z"/><path fill="#C28B65" d="M-604.7 220.7l-668.7 260.6c-21.7 8.4-20.3 39.5 1.9 46.1l169.9 50.2 63.4 201.2c6.6 21 33.3 27.4 48.7 11.6l87.9-89.7 172.4 126.5c21.1 15.5 51.1 4 56.5-21.6l114.2-545.8c5.5-26.7-20.8-49-46.2-39.1zm-83.9 121.2l-310.6 274.7c-3.1 2.7-5.1 6.5-5.5 10.6l-12 106.3c-.4 3.5-5.2 3.9-6.3.6l-49.2-158.5c-2.3-7.3.7-15.1 7.1-19.1L-698.3 329c8.5-5.3 17.2 6.3 9.7 12.9z"/></svg>