<svg xmlns="http://www.w3.org/2000/svg" viewBox="0 0 75.2 86.7"><path fill="#4c4c4c" d="M37.6 47.5c-10.6 0-19.1-10.7-19.1-23.8S27 0 37.6 0s19.1 10.7 19.1 23.8-8.6 23.7-19.1 23.7zm0-42.5c-7.8 0-14.1 8.4-14.1 18.8s6.3 18.8 14.1 18.8 14.1-8.4 14.1-18.8S45.4 5 37.6 5z"/><path fill="#4c4c4c" d="M37.6 86.7c-12.2 0-24.4-3-35.1-8.7C.6 77-.4 74.7.2 72.6c3-10.8 8.7-20.1 15.9-26.3.9-.7 2-1.1 3.1-1.1 1.7 0 3.2.8 4.1 2.2 3.2 5.1 8.6 8.1 14.3 8.1s11.1-3 14.3-8.1c.9-1.4 2.4-2.2 4.1-2.2 1.1 0 2.2.4 3.1 1.1C66.3 52.6 72 61.9 75 72.7c.6 2.1-.4 4.4-2.3 5.4-10.8 5.7-22.9 8.6-35.1 8.6zM5.1 73.8c9.9 5.2 21.2 8 32.5 8s22.6-2.8 32.5-8c-2.8-9.6-7.8-17.9-14.1-23.4-4.2 6.4-11 10.2-18.4 10.2-7.4 0-14.3-3.8-18.4-10.2-6.4 5.4-11.4 13.7-14.1 23.4z"/></svg>