<svg xmlns="http://www.w3.org/2000/svg" viewBox="-1116 -10 1000 1000"><path fill="#C28B65" d="M-615.8-10h-.3C-891.8-10-1116 214.3-1116 490c0 109.4 35.3 210.8 95.2 293.1l-62.3 185.8 192.2-61.4c79.1 52.4 173.4 82.6 275.1 82.6C-340.1 990-116 765.7-116 490S-340.1-10-615.8-10zm290.9 706.1c-12.1 34.1-59.9 62.3-98.1 70.6-26.1 5.6-60.3 10-175.1-37.6C-745 668.2-839.7 518.9-847 509.2c-7.1-9.7-59.4-79.1-59.4-150.8s36.4-106.7 51.1-121.7c12.1-12.3 32-17.9 51.1-17.9 6.2 0 11.8.3 16.8.6 14.7.6 22.1 1.5 31.8 24.7 12.1 29.1 41.4 100.8 44.9 108.2 3.6 7.4 7.1 17.4 2.1 27.1-4.7 10-8.8 14.4-16.2 22.9s-14.4 15-21.8 24.1c-6.8 7.9-14.4 16.4-5.9 31.1 8.5 14.4 37.9 62.3 81.1 100.8 55.8 49.7 101.1 65.6 117.3 72.3 12.1 5 26.4 3.8 35.3-5.6 11.2-12.1 25-32.1 39.1-51.8 10-14.1 22.6-15.9 35.9-10.9 13.5 4.7 84.9 40 99.6 47.3 14.7 7.4 24.4 10.9 27.9 17.1 3.5 6.2 3.5 35.2-8.6 69.4z"/></svg>